<svg width="240" height="60" viewBox="0 0 240 60" xmlns="http://www.w3.org/2000/svg">
  <g transform="scale(0.6) translate(10, 10)">
    <defs>
      <linearGradient id="bg_wordmark" x1="0" y1="0" x2="1" y2="1">
        <stop offset="0%" stop-color="#0ea5e9" />
        <stop offset="100%" stop-color="#1e3a5f" />
      </linearGradient>
      <clipPath id="bclip_wordmark">
        <path d="M14 12 h20 c10 0 16 6 16 14 c0 5-2.5 9-7 11 c6 2 9 7 9 13 c0 9-7 16-18 16 H14 Z M22 35 h11 c4 0 6-2.2 6-5.5 S37 24 33 24 H22 Z M22 54 h12 c4.5 0 7-2.5 7-6 S38.5 42 34 42 H22 Z" />
      </clipPath>
    </defs>
    <rect width="80" height="80" rx="18" fill="url(#bg_wordmark)" />
    <path d="M14 12 h20 c10 0 16 6 16 14 c0 5-2.5 9-7 11 c6 2 9 7 9 13 c0 9-7 16-18 16 H14 Z M22 35 h11 c4 0 6-2.2 6-5.5 S37 24 33 24 H22 Z M22 54 h12 c4.5 0 7-2.5 7-6 S38.5 42 34 42 H22 Z" fill="white" />
    <g clip-path="url(#bclip_wordmark)">
      <line x1="14" y1="58" x2="56" y2="58" stroke="#1e3a5f" stroke-width="1.5" />
      <rect x="16" y="46" width="5" height="12" rx="0.5" fill="#1e3a5f" />
      <rect x="22" y="40" width="4" height="18" rx="0.5" fill="#1e3a5f" />
      <rect x="27" y="44" width="3.5" height="14" rx="0.5" fill="#1e3a5f" />
      <rect x="31" y="38" width="5" height="20" rx="0.5" fill="#1e3a5f" />
      <rect x="37" y="43" width="4" height="15" rx="0.5" fill="#1e3a5f" />
      <rect x="42" y="47" width="4" height="11" rx="0.5" fill="#1e3a5f" />
      <rect x="47" y="42" width="3.5" height="16" rx="0.5" fill="#1e3a5f" />
      <line x1="33.5" y1="38" x2="33.5" y2="33" stroke="#1e3a5f" stroke-width="1" />
      <line x1="30" y1="33" x2="40" y2="33" stroke="#1e3a5f" stroke-width="1" />
      <line x1="40" y1="33" x2="40" y2="37" stroke="#1e3a5f" stroke-width="0.8" stroke-dasharray="1.5 1" />
    </g>
    <circle cx="62" cy="16" r="7" fill="#fbbf24" opacity="0.2" />
    <circle cx="62" cy="16" r="4.5" fill="#fbbf24" />
    <circle cx="62" cy="16" r="1.8" fill="white" opacity="0.9" />
  </g>
  <text x="70" y="42" font-family="Inter, system-ui, sans-serif" font-weight="800" font-size="28" letter-spacing="-0.03em" fill="#1e3a5f">
    Build<tspan fill="#0ea5e9">Force</tspan>
  </text>
</svg>
